<svg width="10" height="10" viewBox="0 0 10 10" fill="none" xmlns="http://www.w3.org/2000/svg">
<path d="M9.625 5C9.625 5.49127 9.22685 5.88942 8.73558 5.88942H5.88942V8.73558C5.88942 9.22685 5.49127 9.625 5 9.625C4.50873 9.625 4.11058 9.22685 4.11058 8.73558V5.88942H1.26442C0.77315 5.88942 0.375 5.49127 0.375 5C0.375 4.50873 0.77315 4.11058 1.26442 4.11058H4.11058V1.26442C4.11058 0.77315 4.50873 0.375 5 0.375C5.49127 0.375 5.88942 0.77315 5.88942 1.26442V4.11058H8.73558C9.22685 4.11058 9.625 4.50873 9.625 5Z" fill="#0088FF"/>
</svg>
